<?xml version="1.0" encoding="UTF-8" standalone="no"?>
<!-- Created with Vectornator (http://vectornator.io/) -->

<svg
   height="1648014.1"
   stroke-miterlimit="10"
   style="clip-rule:evenodd;fill-rule:nonzero;stroke-linecap:round;stroke-linejoin:round"
   version="1.1"
   viewBox="660 126.254 1537128.9 1648014.1"
   width="1537129"
   xml:space="preserve"
   id="svg16"
   sodipodi:docname="RaccoonFormality.svg"
   inkscape:export-filename="RaccoonFormality-head"
   inkscape:export-xdpi="96"
   inkscape:export-ydpi="96"
   xmlns:inkscape="http://www.inkscape.org/namespaces/inkscape"
   xmlns:sodipodi="http://sodipodi.sourceforge.net/DTD/sodipodi-0.dtd"
   xmlns="http://www.w3.org/2000/svg"
   xmlns:svg="http://www.w3.org/2000/svg"
   xmlns:vectornator="http://vectornator.io"><sodipodi:namedview
   id="namedview16"
   pagecolor="#ffffff"
   bordercolor="#000000"
   borderopacity="0.25"
   inkscape:showpageshadow="2"
   inkscape:pageopacity="0.0"
   inkscape:pagecheckerboard="0"
   inkscape:deskcolor="#d1d1d1" />
<defs
   id="defs1" />
<g
   id="BW"
   vectornator:layerName="B/W"
   style="display:none">
<path
   d="m 1150,980 h 260 c 0,0 -10,260 -130,310 -120,-50 -130,-310 -130,-310 z"
   fill="#ffffff"
   fill-rule="nonzero"
   opacity="1"
   stroke="none"
   vectornator:layerName="Curve 9"
   id="path1" />
<path
   d="m 1059.16,920.031 c -2.8,0.116 -5.54,0.817 -8.1,2.094 -99.276,49.639 -170.758,79.265 -215.216,123.715 -31.06,31.06 -48.115,86.79 -59.406,133.6 -11.429,47.38 -16.225,87.71 -16.282,88.18 -0.761,6.38 1.567,12.72 6.282,17.07 3.663,3.38 139.024,125.31 513.562,125.31 374.5,0 509.87,-121.91 513.56,-125.31 4.72,-4.35 7.05,-10.7 6.28,-17.07 -0.05,-0.47 -4.85,-40.8 -16.28,-88.18 -11.33,-46.98 -28.38,-102.57 -59.4,-133.6 -44.49,-44.48 -116.02,-74.114 -215.22,-123.715 -5.11,-2.555 -11.07,-2.809 -16.38,-0.687 -47.26,18.903 -105.84,28.843 -105.84,28.843 -9.31,1.551 -16.26,9.388 -16.69,18.813 0,0 -2.44,53.316 -17.03,117.746 -13.15,58.06 -36.3,122.87 -72.97,164.6 -36.65,-41.69 -59.86,-106.45 -73.03,-164.6 -14.59,-64.43 -17.03,-117.746 -17.03,-117.746 -0.43,-9.425 -7.38,-17.262 -16.69,-18.813 0,0 -58.59,-9.942 -105.84,-28.843 -2.65,-1.061 -5.49,-1.523 -8.28,-1.407 z"
   fill="#ffffff"
   fill-rule="nonzero"
   opacity="1"
   stroke="none"
   vectornator:layerName="Curve 13"
   id="path2" />
<path
   d="m 1060,940 c -100,50 -170,80 -210,120 -50.99,50.99 -70,210 -70,210 0,0 130,120 500,120 370,0 500,-120 500,-120 0,0 -19.01,-159.01 -70,-210 -40,-40 -110,-70 -210,-120 -50,20 -110,30 -110,30 0,0 -10,220 -110,310 -100,-90 -110,-310 -110,-310 0,0 -60,-10 -110,-30 z"
   fill="#000000"
   fill-rule="nonzero"
   opacity="1"
   stroke="none"
   vectornator:layerName="Curve 8"
   id="path3" />
<path
   d="m 1230,980 40,90 -50,190 60,70 60,-70 -50,-190 40,-90"
   fill="#000000"
   fill-rule="nonzero"
   opacity="1"
   stroke="none"
   vectornator:layerName="Curve 10"
   id="path4" />
<path
   d="m 1600.5,126.312 c -77.4,-1.88 -171.65,41.902 -263.19,115.844 C 1318.49,240.843 1299.43,240 1280,240 c -19.57,0 -38.78,0.858 -57.75,2.188 -64.26,-51.855 -129.45,-88.45 -189.16,-105.344 -61.212,-17.321 -119.474,-14.505 -161.434,19.656 -30.333,24.695 -46.466,61.544 -51.187,103.688 -4.347,38.805 0.715,82.846 13.531,129.812 -35.112,31.338 -63.489,66.705 -83.125,105.312 -4.589,-1.195 -9.41,-2.563 -14.563,-4.281 -7.196,-2.399 -14.175,-4.978 -21.343,-7 -7.032,-1.983 -14.798,-3.917 -24.063,-2.593 -9.982,1.426 -19.892,7.971 -25.062,17.968 C 661.087,508.604 660,518.551 660,530 c 0,24.217 13.098,140.02 97.781,252.062 C 842.836,894.597 999.595,1000 1280,1000 c 280.31,0 437.07,-105.363 522.12,-218 84.69,-112.144 97.69,-227.946 97.69,-252.125 0,-11.479 -1.09,-21.416 -5.84,-30.594 -5.11,-9.882 -14.95,-16.524 -25.06,-17.969 -9.29,-1.326 -17.06,0.619 -24.07,2.594 -7.16,2.022 -14.15,4.602 -21.34,7 -5.12,1.707 -9.88,3.062 -14.44,4.25 -19.66,-38.617 -48.07,-73.972 -83.22,-105.312 26.42,-96.863 20.73,-185.947 -37.68,-233.5 -24.37,-19.838 -54.79,-29.233 -87.66,-30.032 z"
   fill="#ffffff"
   fill-rule="nonzero"
   opacity="1"
   stroke="none"
   vectornator:layerName="Curve 14"
   id="path5" />
<path
   d="m 1600,146.312 c -71.35,-1.733 -164.53,40.77 -256.19,116.282 C 1322.87,260.949 1301.6,260 1280,260 c -21.72,0 -43.11,0.932 -64.16,2.594 C 1086.43,156.035 953.903,115.319 884.281,172 833.77,213.123 826.853,297.064 856.625,396.688 814.217,432.373 781.757,473.513 762,518.312 c -9.436,-1.748 -20.052,-4.329 -32,-8.312 -30,-10 -50,-20 -50,20 0,40 50,450 600,450 550,0 599.81,-410.125 599.81,-450.125 0,-40 -20,-30 -50,-20 -11.91,3.969 -22.46,6.532 -31.87,8.281 -19.79,-44.799 -52.28,-85.947 -94.72,-121.625 29.76,-99.609 22.82,-183.569 -27.69,-224.687 -20.35,-16.567 -46.09,-24.816 -75.53,-25.532 z"
   fill="#000000"
   fill-rule="nonzero"
   opacity="1"
   stroke="none"
   vectornator:layerName="Curve 1"
   id="path6" />
<path
   d="m 1280,280 c 0,0 -20,30 -60,60 40,20 60,70 60,70 0,0 20,-50 60,-70 -40,-30 -60,-60 -60,-60 z"
   fill="#ffffff"
   fill-rule="nonzero"
   opacity="0"
   stroke="none"
   vectornator:layerName="Curve 4"
   id="path7" />
<path
   d="m 1280,280 c 0,0 -30,50 -100,70 80,30 100,140 100,140 0,0 20,-110 100,-140 -80,-20 -100,-70 -100,-70 z"
   fill="#ffffff"
   fill-rule="nonzero"
   opacity="1"
   stroke="none"
   vectornator:layerName="Curve 17"
   id="path8" />
<path
   d="m 879.906,550 c -80,30 -120,100 -120,100 0,0 30,70 100,140 70,70 160.004,90 160.004,90 0,0 20,-110 100,-160 -140.004,0 -240.004,-50 -240.004,-170 z m 800.004,0 c 0,120 -100,170 -240,170 80,50 100,160 100,160 0,0 90,-20 160,-90 70,-70 100,-140 100,-140 0,0 -40,-70 -120,-100 z"
   fill="#ffffff"
   fill-rule="nonzero"
   opacity="1"
   stroke="none"
   vectornator:layerName="Curve 7"
   id="path9" />
<path
   d="m 1280,820 c 0,0 -60,-36 -60,-63 0,-18 8.57,-27 25.71,-27 17.15,0 34.29,18 34.29,18 0,0 17.14,-18 34.29,-18 17.14,0 25.71,9 25.71,27 0,18 -60,63 -60,63 z"
   fill="#ffffff"
   fill-rule="nonzero"
   opacity="0"
   stroke="none"
   vectornator:layerName="Curve 6"
   id="path10" />
<path
   d="m 1280,810 c 0,0 -50,-30 -60,-53 30,-37 90,-37 120,0 -10,23 -60,53 -60,53 z"
   fill="#ffffff"
   fill-rule="nonzero"
   opacity="1"
   stroke="none"
   vectornator:layerName="Curve 16"
   id="path11" />
<path
   d="M 1060,320 C 962.91,320 880.824,382.96 851.625,470.156 822.817,471.908 800,495.767 800,525 c 0,26.456 18.662,48.509 43.531,53.781 C 861.883,681.796 951.752,760 1060,760 c 86.8,0 161.53,-50.427 197.31,-123.344 7.39,-3.711 15.75,-6.656 22.69,-6.656 6.91,0 15.26,2.956 22.69,6.688 C 1338.47,709.596 1413.21,760 1500,760 c 108.26,0 198.12,-78.217 216.47,-181.219 24.88,-5.275 43.53,-27.341 43.53,-53.781 0,-29.251 -22.83,-53.093 -51.62,-54.844 C 1679.17,382.954 1597.08,320 1500,320 c -114.78,0 -208.97,87.895 -219.06,200.031 -0.25,-0.002 -0.48,-0.031 -0.72,-0.031 -0.4,0 -0.77,0.056 -1.16,0.062 C 1268.98,407.898 1174.77,320 1060,320 Z"
   fill="#000000"
   fill-rule="nonzero"
   opacity="1"
   stroke="none"
   vectornator:layerName="Curve 15"
   id="path12" />
<path
   d="M 1060,340 C 966.133,340 887.604,404.756 866.062,491.969 862.567,490.797 858.89,490 855,490 c -19.33,0 -35,15.67 -35,35 0,19.33 15.67,35 35,35 2.031,0 4.001,-0.262 5.938,-0.594 C 870.704,660.749 956.096,740 1060,740 c 81.19,0 150.91,-48.47 182.25,-117.969 9.62,-5.617 23.39,-12.031 37.75,-12.031 14.34,0 28.1,6.419 37.72,12.031 C 1349.05,691.537 1418.81,740 1500,740 c 103.9,0 189.3,-79.251 199.06,-180.594 1.94,0.332 3.91,0.594 5.94,0.594 19.33,0 35,-15.67 35,-35 0,-19.33 -15.67,-35 -35,-35 -3.89,0 -7.57,0.797 -11.06,1.969 C 1672.4,404.756 1593.87,340 1500,340 c -110.46,0 -200,89.543 -200,200 0,1.249 0.07,2.476 0.09,3.719 -6.29,-2.17 -13.04,-3.719 -19.87,-3.719 -6.95,0 -13.88,1.61 -20.31,3.844 0.02,-1.285 0.09,-2.554 0.09,-3.844 0,-110.457 -89.54,-200 -200,-200 z"
   fill="#ffffff"
   fill-rule="nonzero"
   opacity="1"
   stroke="none"
   vectornator:layerName="Curve 2"
   id="path13" />
<path
   d="m 1060,390 c -82.843,0 -150,67.157 -150,150 0,82.843 67.157,150 150,150 82.84,0 150,-67.157 150,-150 0,-82.843 -67.16,-150 -150,-150 z m 440,0 c -82.84,0 -150,67.157 -150,150 0,82.843 67.16,150 150,150 82.84,0 150,-67.157 150,-150 0,-82.843 -67.16,-150 -150,-150 z"
   fill="#000000"
   fill-rule="nonzero"
   opacity="1"
   stroke="none"
   vectornator:layerName="Curve 3"
   id="path14" />
<path
   d="m 1100,440 c -60.75,0 -110,49.249 -110,110 0,60.751 49.25,110 110,110 60.75,0 110,-49.249 110,-110 0,-60.751 -49.25,-110 -110,-110 z m 360,0 c -60.75,0 -110,49.249 -110,110 0,60.751 49.25,110 110,110 60.75,0 110,-49.249 110,-110 0,-60.751 -49.25,-110 -110,-110 z"
   fill="#ffffff"
   fill-rule="nonzero"
   opacity="1"
   stroke="none"
   vectornator:layerName="Curve 12"
   id="path15" />
<path
   d="m 1115,470 c -46.94,0 -85,38.056 -85,85 0,46.944 38.06,85 85,85 46.94,0 85,-38.056 85,-85 0,-46.944 -38.06,-85 -85,-85 z m 330,0 c -46.94,0 -85,38.056 -85,85 0,46.944 38.06,85 85,85 46.94,0 85,-38.056 85,-85 0,-46.944 -38.06,-85 -85,-85 z"
   fill="#000000"
   fill-rule="nonzero"
   opacity="1"
   stroke="none"
   vectornator:layerName="Curve 11"
   id="path16" />
</g>
<g
   id="g32"
   vectornator:layerName="B/W"
   transform="translate(0,205.00209)">
<path
   d="m 1150,980 h 260 c 0,0 -10,260 -130,310 -120,-50 -130,-310 -130,-310 z"
   fill="#ffffff"
   fill-rule="nonzero"
   opacity="1"
   stroke="none"
   vectornator:layerName="Curve 9"
   id="path17"
   style="display:none" />
<path
   d="m 1059.16,920.031 c -2.8,0.116 -5.54,0.817 -8.1,2.094 -99.276,49.639 -170.758,79.265 -215.216,123.715 -31.06,31.06 -48.115,86.79 -59.406,133.6 -11.429,47.38 -16.225,87.71 -16.282,88.18 -0.761,6.38 1.567,12.72 6.282,17.07 3.663,3.38 139.024,125.31 513.562,125.31 374.5,0 509.87,-121.91 513.56,-125.31 4.72,-4.35 7.05,-10.7 6.28,-17.07 -0.05,-0.47 -4.85,-40.8 -16.28,-88.18 -11.33,-46.98 -28.38,-102.57 -59.4,-133.6 -44.49,-44.48 -116.02,-74.114 -215.22,-123.715 -5.11,-2.555 -11.07,-2.809 -16.38,-0.687 -47.26,18.903 -105.84,28.843 -105.84,28.843 -9.31,1.551 -16.26,9.388 -16.69,18.813 0,0 -2.44,53.316 -17.03,117.746 -13.15,58.06 -36.3,122.87 -72.97,164.6 -36.65,-41.69 -59.86,-106.45 -73.03,-164.6 -14.59,-64.43 -17.03,-117.746 -17.03,-117.746 -0.43,-9.425 -7.38,-17.262 -16.69,-18.813 0,0 -58.59,-9.942 -105.84,-28.843 -2.65,-1.061 -5.49,-1.523 -8.28,-1.407 z"
   fill="#ffffff"
   fill-rule="nonzero"
   opacity="1"
   stroke="none"
   vectornator:layerName="Curve 13"
   id="path18"
   style="display:none" />
<path
   d="m 1060,940 c -100,50 -170,80 -210,120 -50.99,50.99 -70,210 -70,210 0,0 130,120 500,120 370,0 500,-120 500,-120 0,0 -19.01,-159.01 -70,-210 -40,-40 -110,-70 -210,-120 -50,20 -110,30 -110,30 0,0 -10,220 -110,310 -100,-90 -110,-310 -110,-310 0,0 -60,-10 -110,-30 z"
   fill="#000000"
   fill-rule="nonzero"
   opacity="1"
   stroke="none"
   vectornator:layerName="Curve 8"
   id="path19"
   style="display:none" />
<path
   d="m 1230,980 40,90 -50,190 60,70 60,-70 -50,-190 40,-90"
   fill="#000000"
   fill-rule="nonzero"
   opacity="1"
   stroke="none"
   vectornator:layerName="Curve 10"
   id="path20"
   style="display:none" />
<path
   d="m 1600.5,126.312 c -77.4,-1.88 -171.65,41.902 -263.19,115.844 C 1318.49,240.843 1299.43,240 1280,240 c -19.57,0 -38.78,0.858 -57.75,2.188 -64.26,-51.855 -129.45,-88.45 -189.16,-105.344 -61.212,-17.321 -119.474,-14.505 -161.434,19.656 -30.333,24.695 -46.466,61.544 -51.187,103.688 -4.347,38.805 0.715,82.846 13.531,129.812 -35.112,31.338 -63.489,66.705 -83.125,105.312 -4.589,-1.195 -9.41,-2.563 -14.563,-4.281 -7.196,-2.399 -14.175,-4.978 -21.343,-7 -7.032,-1.983 -14.798,-3.917 -24.063,-2.593 -9.982,1.426 -19.892,7.971 -25.062,17.968 C 661.087,508.604 660,518.551 660,530 c 0,24.217 13.098,140.02 97.781,252.062 C 842.836,894.597 999.595,1000 1280,1000 c 280.31,0 437.07,-105.363 522.12,-218 84.69,-112.144 97.69,-227.946 97.69,-252.125 0,-11.479 -1.09,-21.416 -5.84,-30.594 -5.11,-9.882 -14.95,-16.524 -25.06,-17.969 -9.29,-1.326 -17.06,0.619 -24.07,2.594 -7.16,2.022 -14.15,4.602 -21.34,7 -5.12,1.707 -9.88,3.062 -14.44,4.25 -19.66,-38.617 -48.07,-73.972 -83.22,-105.312 26.42,-96.863 20.73,-185.947 -37.68,-233.5 -24.37,-19.838 -54.79,-29.233 -87.66,-30.032 z"
   fill="#ffffff"
   fill-rule="nonzero"
   opacity="1"
   stroke="none"
   vectornator:layerName="Curve 14"
   id="path21"
   style="display:inline" />
<path
   d="m 1600,146.312 c -71.35,-1.733 -164.53,40.77 -256.19,116.282 C 1322.87,260.949 1301.6,260 1280,260 c -21.72,0 -43.11,0.932 -64.16,2.594 C 1086.43,156.035 953.903,115.319 884.281,172 833.77,213.123 826.853,297.064 856.625,396.688 814.217,432.373 781.757,473.513 762,518.312 c -9.436,-1.748 -20.052,-4.329 -32,-8.312 -30,-10 -50,-20 -50,20 0,40 50,450 600,450 550,0 599.81,-410.125 599.81,-450.125 0,-40 -20,-30 -50,-20 -11.91,3.969 -22.46,6.532 -31.87,8.281 -19.79,-44.799 -52.28,-85.947 -94.72,-121.625 29.76,-99.609 22.82,-183.569 -27.69,-224.687 -20.35,-16.567 -46.09,-24.816 -75.53,-25.532 z"
   fill="#000000"
   fill-rule="nonzero"
   opacity="1"
   stroke="none"
   vectornator:layerName="Curve 1"
   id="path22" />
<path
   d="m 1280,280 c 0,0 -20,30 -60,60 40,20 60,70 60,70 0,0 20,-50 60,-70 -40,-30 -60,-60 -60,-60 z"
   fill="#ffffff"
   fill-rule="nonzero"
   opacity="0"
   stroke="none"
   vectornator:layerName="Curve 4"
   id="path23" />
<path
   d="m 1280,280 c 0,0 -30,50 -100,70 80,30 100,140 100,140 0,0 20,-110 100,-140 -80,-20 -100,-70 -100,-70 z"
   fill="#ffffff"
   fill-rule="nonzero"
   opacity="1"
   stroke="none"
   vectornator:layerName="Curve 17"
   id="path24" />
<path
   d="m 879.906,550 c -80,30 -120,100 -120,100 0,0 30,70 100,140 70,70 160.004,90 160.004,90 0,0 20,-110 100,-160 -140.004,0 -240.004,-50 -240.004,-170 z m 800.004,0 c 0,120 -100,170 -240,170 80,50 100,160 100,160 0,0 90,-20 160,-90 70,-70 100,-140 100,-140 0,0 -40,-70 -120,-100 z"
   fill="#ffffff"
   fill-rule="nonzero"
   opacity="1"
   stroke="none"
   vectornator:layerName="Curve 7"
   id="path25" />
<path
   d="m 1280,820 c 0,0 -60,-36 -60,-63 0,-18 8.57,-27 25.71,-27 17.15,0 34.29,18 34.29,18 0,0 17.14,-18 34.29,-18 17.14,0 25.71,9 25.71,27 0,18 -60,63 -60,63 z"
   fill="#ffffff"
   fill-rule="nonzero"
   opacity="0"
   stroke="none"
   vectornator:layerName="Curve 6"
   id="path26" />
<path
   d="m 1280,810 c 0,0 -50,-30 -60,-53 30,-37 90,-37 120,0 -10,23 -60,53 -60,53 z"
   fill="#ffffff"
   fill-rule="nonzero"
   opacity="1"
   stroke="none"
   vectornator:layerName="Curve 16"
   id="path27" />
<path
   d="M 1060,320 C 962.91,320 880.824,382.96 851.625,470.156 822.817,471.908 800,495.767 800,525 c 0,26.456 18.662,48.509 43.531,53.781 C 861.883,681.796 951.752,760 1060,760 c 86.8,0 161.53,-50.427 197.31,-123.344 7.39,-3.711 15.75,-6.656 22.69,-6.656 6.91,0 15.26,2.956 22.69,6.688 C 1338.47,709.596 1413.21,760 1500,760 c 108.26,0 198.12,-78.217 216.47,-181.219 24.88,-5.275 43.53,-27.341 43.53,-53.781 0,-29.251 -22.83,-53.093 -51.62,-54.844 C 1679.17,382.954 1597.08,320 1500,320 c -114.78,0 -208.97,87.895 -219.06,200.031 -0.25,-0.002 -0.48,-0.031 -0.72,-0.031 -0.4,0 -0.77,0.056 -1.16,0.062 C 1268.98,407.898 1174.77,320 1060,320 Z"
   fill="#000000"
   fill-rule="nonzero"
   opacity="1"
   stroke="none"
   vectornator:layerName="Curve 15"
   id="path28" />
<path
   d="M 1060,340 C 966.133,340 887.604,404.756 866.062,491.969 862.567,490.797 858.89,490 855,490 c -19.33,0 -35,15.67 -35,35 0,19.33 15.67,35 35,35 2.031,0 4.001,-0.262 5.938,-0.594 C 870.704,660.749 956.096,740 1060,740 c 81.19,0 150.91,-48.47 182.25,-117.969 9.62,-5.617 23.39,-12.031 37.75,-12.031 14.34,0 28.1,6.419 37.72,12.031 C 1349.05,691.537 1418.81,740 1500,740 c 103.9,0 189.3,-79.251 199.06,-180.594 1.94,0.332 3.91,0.594 5.94,0.594 19.33,0 35,-15.67 35,-35 0,-19.33 -15.67,-35 -35,-35 -3.89,0 -7.57,0.797 -11.06,1.969 C 1672.4,404.756 1593.87,340 1500,340 c -110.46,0 -200,89.543 -200,200 0,1.249 0.07,2.476 0.09,3.719 -6.29,-2.17 -13.04,-3.719 -19.87,-3.719 -6.95,0 -13.88,1.61 -20.31,3.844 0.02,-1.285 0.09,-2.554 0.09,-3.844 0,-110.457 -89.54,-200 -200,-200 z"
   fill="#ffffff"
   fill-rule="nonzero"
   opacity="1"
   stroke="none"
   vectornator:layerName="Curve 2"
   id="path29"
   style="display:inline" />
<path
   d="m 1060,390 c -82.843,0 -150,67.157 -150,150 0,82.843 67.157,150 150,150 82.84,0 150,-67.157 150,-150 0,-82.843 -67.16,-150 -150,-150 z m 440,0 c -82.84,0 -150,67.157 -150,150 0,82.843 67.16,150 150,150 82.84,0 150,-67.157 150,-150 0,-82.843 -67.16,-150 -150,-150 z"
   fill="#000000"
   fill-rule="nonzero"
   opacity="1"
   stroke="none"
   vectornator:layerName="Curve 3"
   id="path30" />
<path
   d="m 1100,440 c -60.75,0 -110,49.249 -110,110 0,60.751 49.25,110 110,110 60.75,0 110,-49.249 110,-110 0,-60.751 -49.25,-110 -110,-110 z m 360,0 c -60.75,0 -110,49.249 -110,110 0,60.751 49.25,110 110,110 60.75,0 110,-49.249 110,-110 0,-60.751 -49.25,-110 -110,-110 z"
   fill="#ffffff"
   fill-rule="nonzero"
   opacity="1"
   stroke="none"
   vectornator:layerName="Curve 12"
   id="path31"
   style="display:inline" />
<path
   d="m 1115,470 c -46.94,0 -85,38.056 -85,85 0,46.944 38.06,85 85,85 46.94,0 85,-38.056 85,-85 0,-46.944 -38.06,-85 -85,-85 z m 330,0 c -46.94,0 -85,38.056 -85,85 0,46.944 38.06,85 85,85 46.94,0 85,-38.056 85,-85 0,-46.944 -38.06,-85 -85,-85 z"
   fill="#000000"
   fill-rule="nonzero"
   opacity="1"
   stroke="none"
   vectornator:layerName="Curve 11"
   id="path32" />
</g></svg>
